<mxfile host="app.diagrams.net" modified="2021-06-27T12:39:13.049Z" agent="5.0 (Windows NT 10.0; Win64; x64) AppleWebKit/537.36 (KHTML, like Gecko) Chrome/91.0.4472.114 Safari/537.36" etag="ujyQMc4ePZy0ssdBUQms" version="14.8.1" type="github">
  <diagram id="1lnUewr4RsqRjAsmZF8z" name="Page-1">
    <mxGraphModel dx="782" dy="411" grid="1" gridSize="10" guides="1" tooltips="1" connect="1" arrows="1" fold="1" page="1" pageScale="1" pageWidth="850" pageHeight="1100" math="0" shadow="0">
      <root>
        <mxCell id="0" />
        <mxCell id="1" parent="0" />
        <mxCell id="zqbV0QmqEAugmSd7jVf_-2" value="" style="rounded=1;whiteSpace=wrap;html=1;" vertex="1" parent="1">
          <mxGeometry x="30" y="80" width="250" height="220" as="geometry" />
        </mxCell>
        <mxCell id="zqbV0QmqEAugmSd7jVf_-3" value="" style="rounded=1;whiteSpace=wrap;html=1;" vertex="1" parent="1">
          <mxGeometry x="400" y="105" width="150" height="170" as="geometry" />
        </mxCell>
        <mxCell id="zqbV0QmqEAugmSd7jVf_-4" value="" style="rounded=1;whiteSpace=wrap;html=1;" vertex="1" parent="1">
          <mxGeometry x="650" y="160" width="120" height="60" as="geometry" />
        </mxCell>
        <mxCell id="zqbV0QmqEAugmSd7jVf_-5" value="&lt;b&gt;&lt;u&gt;Views&lt;/u&gt;&lt;/b&gt;" style="text;html=1;strokeColor=none;fillColor=none;align=center;verticalAlign=middle;whiteSpace=wrap;rounded=0;" vertex="1" parent="1">
          <mxGeometry x="129" y="100" width="40" height="20" as="geometry" />
        </mxCell>
        <mxCell id="zqbV0QmqEAugmSd7jVf_-6" value="&lt;b&gt;&lt;u&gt;ViewModel&lt;/u&gt;&lt;/b&gt;" style="text;html=1;strokeColor=none;fillColor=none;align=center;verticalAlign=middle;whiteSpace=wrap;rounded=0;" vertex="1" parent="1">
          <mxGeometry x="455" y="110" width="40" height="20" as="geometry" />
        </mxCell>
        <mxCell id="zqbV0QmqEAugmSd7jVf_-7" value="&lt;b&gt;&lt;u&gt;Model&lt;/u&gt;&lt;/b&gt;" style="text;html=1;strokeColor=none;fillColor=none;align=center;verticalAlign=middle;whiteSpace=wrap;rounded=0;" vertex="1" parent="1">
          <mxGeometry x="690" y="160" width="40" height="20" as="geometry" />
        </mxCell>
        <mxCell id="zqbV0QmqEAugmSd7jVf_-10" value="" style="endArrow=classic;html=1;exitX=1;exitY=0.5;exitDx=0;exitDy=0;entryX=0;entryY=0.5;entryDx=0;entryDy=0;" edge="1" parent="1" source="zqbV0QmqEAugmSd7jVf_-2" target="zqbV0QmqEAugmSd7jVf_-3">
          <mxGeometry relative="1" as="geometry">
            <mxPoint x="350" y="220" as="sourcePoint" />
            <mxPoint x="450" y="220" as="targetPoint" />
          </mxGeometry>
        </mxCell>
        <mxCell id="zqbV0QmqEAugmSd7jVf_-11" value="Event Listener" style="edgeLabel;resizable=0;html=1;align=center;verticalAlign=middle;" connectable="0" vertex="1" parent="zqbV0QmqEAugmSd7jVf_-10">
          <mxGeometry relative="1" as="geometry" />
        </mxCell>
        <mxCell id="zqbV0QmqEAugmSd7jVf_-12" value="" style="endArrow=classic;html=1;exitX=1;exitY=0.5;exitDx=0;exitDy=0;entryX=0;entryY=0.5;entryDx=0;entryDy=0;" edge="1" parent="1" source="zqbV0QmqEAugmSd7jVf_-3" target="zqbV0QmqEAugmSd7jVf_-4">
          <mxGeometry relative="1" as="geometry">
            <mxPoint x="460" y="100" as="sourcePoint" />
            <mxPoint x="600" y="100" as="targetPoint" />
          </mxGeometry>
        </mxCell>
        <mxCell id="zqbV0QmqEAugmSd7jVf_-13" value="Commands" style="edgeLabel;resizable=0;html=1;align=center;verticalAlign=middle;" connectable="0" vertex="1" parent="zqbV0QmqEAugmSd7jVf_-12">
          <mxGeometry relative="1" as="geometry" />
        </mxCell>
        <mxCell id="zqbV0QmqEAugmSd7jVf_-16" value="" style="rounded=1;whiteSpace=wrap;html=1;" vertex="1" parent="1">
          <mxGeometry x="54" y="130" width="190" height="140" as="geometry" />
        </mxCell>
        <mxCell id="zqbV0QmqEAugmSd7jVf_-17" value="" style="rounded=1;whiteSpace=wrap;html=1;" vertex="1" parent="1">
          <mxGeometry x="87" y="190" width="120" height="60" as="geometry" />
        </mxCell>
        <mxCell id="zqbV0QmqEAugmSd7jVf_-18" value="MainActivity" style="text;html=1;strokeColor=none;fillColor=none;align=center;verticalAlign=middle;whiteSpace=wrap;rounded=0;" vertex="1" parent="1">
          <mxGeometry x="131" y="150" width="40" height="20" as="geometry" />
        </mxCell>
        <mxCell id="zqbV0QmqEAugmSd7jVf_-20" value="JoystickView" style="text;html=1;strokeColor=none;fillColor=none;align=center;verticalAlign=middle;whiteSpace=wrap;rounded=0;" vertex="1" parent="1">
          <mxGeometry x="124" y="210" width="40" height="20" as="geometry" />
        </mxCell>
        <mxCell id="zqbV0QmqEAugmSd7jVf_-22" value="" style="rounded=1;whiteSpace=wrap;html=1;" vertex="1" parent="1">
          <mxGeometry x="415" y="160" width="120" height="60" as="geometry" />
        </mxCell>
        <mxCell id="zqbV0QmqEAugmSd7jVf_-23" value="MainViewModel" style="text;html=1;strokeColor=none;fillColor=none;align=center;verticalAlign=middle;whiteSpace=wrap;rounded=0;" vertex="1" parent="1">
          <mxGeometry x="455" y="180" width="40" height="20" as="geometry" />
        </mxCell>
        <mxCell id="zqbV0QmqEAugmSd7jVf_-24" value="" style="rounded=1;whiteSpace=wrap;html=1;" vertex="1" parent="1">
          <mxGeometry x="660" y="180" width="100" height="30" as="geometry" />
        </mxCell>
        <mxCell id="zqbV0QmqEAugmSd7jVf_-25" value="FlightGearModel" style="text;html=1;strokeColor=none;fillColor=none;align=center;verticalAlign=middle;whiteSpace=wrap;rounded=0;" vertex="1" parent="1">
          <mxGeometry x="690" y="185" width="40" height="20" as="geometry" />
        </mxCell>
      </root>
    </mxGraphModel>
  </diagram>
</mxfile>
